<svg xmlns="http://www.w3.org/2000/svg" width="500" viewBox="0 0 375 375" height="500" version="1.0"><defs><clipPath id="a"><path d="M31.4 37.5h72v78.8h-72Zm0 0"/></clipPath></defs><path fill="#fff" d="M-37.5-37.5h450v450h-450z"/><path fill="#fff" d="M-37.5-37.5h450v450h-450z"/><path d="M-37.5-37.5h450v450h-450z"/><g clip-path="url(#a)"><path fill="#ffd600" d="M102.7 53 91 46.3l.3-2.1a6.7 6.7 0 1 0-6.6 6.7c2 0 3.7-1 5-2.3l11 6.4v18.4l-16 9.3-16-9.3V54.2c0-.5-.3-1-.7-1.2L50.7 43c-.4-.2-1-.2-1.3 0L32 53c-.4.3-.6.7-.6 1.2v20c0 .5.2 1 .6 1.2L48.7 85v19.9c0 .5.2 1 .7 1.2l17.3 10a1.3 1.3 0 0 0 1.3 0l12.1-7a6.7 6.7 0 1 0-1.6-2.2l-11.1 6.5-16-9.3V85l16-9.3L84 85.5a1.4 1.4 0 0 0 1.4 0l17.3-10c.4-.3.7-.7.7-1.2v-20c0-.5-.3-1-.7-1.2Zm-18-4.8a4 4 0 1 1 0-8 4 4 0 0 1 0 8Zm0 52a4 4 0 1 1 0 8 4 4 0 0 1 0-8ZM66 73.4l-16 9.3-16-9.3V55l16-9.3L66 55Zm0 0"/></g></svg>