<svg xmlns="http://www.w3.org/2000/svg" xmlns:xlink="http://www.w3.org/1999/xlink" width="500" zoomAndPan="magnify" viewBox="0 0 375 374.999991" height="500" preserveAspectRatio="xMidYMid meet" version="1.0"><defs><clipPath id="bee3a4deae"><path d="M 31.355469 37.5 L 103.355469 37.5 L 103.355469 116.25 L 31.355469 116.25 Z M 31.355469 37.5 " clip-rule="nonzero"/></clipPath></defs><rect x="-37.5" width="450" fill="#ffffff" y="-37.499999" height="449.999989" fill-opacity="1"/><rect x="-37.5" width="450" fill="#ffffff" y="-37.499999" height="449.999989" fill-opacity="1"/><rect x="-37.5" width="450" fill="#000000" y="-37.499999" height="449.999989" fill-opacity="1"/><g clip-path="url(#bee3a4deae)"><path fill="#ffd600" d="M 102.691406 53.035156 L 90.980469 46.273438 C 91.199219 45.613281 91.347656 44.917969 91.347656 44.183594 C 91.347656 40.503906 88.355469 37.511719 84.679688 37.511719 C 81.003906 37.511719 78.011719 40.503906 78.011719 44.183594 C 78.011719 47.863281 81.003906 50.855469 84.679688 50.855469 C 86.664062 50.855469 88.425781 49.96875 89.648438 48.585938 L 100.691406 54.960938 L 100.691406 73.433594 L 84.691406 82.671875 L 68.691406 73.4375 L 68.691406 54.195312 C 68.691406 53.71875 68.4375 53.277344 68.027344 53.039062 L 50.691406 43.03125 C 50.277344 42.792969 49.773438 42.792969 49.359375 43.03125 L 32.027344 53.039062 C 31.613281 53.277344 31.359375 53.71875 31.359375 54.195312 L 31.359375 74.210938 C 31.359375 74.6875 31.613281 75.125 32.027344 75.367188 L 48.691406 84.988281 L 48.691406 104.898438 C 48.691406 105.375 48.945312 105.8125 49.355469 106.050781 L 66.691406 116.058594 C 66.898438 116.179688 67.125 116.238281 67.355469 116.238281 C 67.585938 116.238281 67.816406 116.179688 68.023438 116.058594 L 80.125 109.070312 C 81.316406 110.195312 82.914062 110.898438 84.679688 110.898438 C 88.355469 110.898438 91.347656 107.90625 91.347656 104.226562 C 91.347656 100.546875 88.355469 97.554688 84.679688 97.554688 C 81.003906 97.554688 78.011719 100.546875 78.011719 104.226562 C 78.011719 105.171875 78.214844 106.066406 78.574219 106.882812 L 67.355469 113.363281 L 51.355469 104.125 L 51.355469 84.988281 L 67.363281 75.75 L 84.023438 85.371094 C 84.230469 85.488281 84.460938 85.546875 84.691406 85.546875 C 84.921875 85.546875 85.148438 85.488281 85.355469 85.371094 L 102.691406 75.363281 C 103.101562 75.125 103.355469 74.683594 103.355469 74.207031 L 103.355469 54.191406 C 103.355469 53.714844 103.101562 53.273438 102.691406 53.035156 Z M 84.679688 48.1875 C 82.472656 48.1875 80.679688 46.390625 80.679688 44.183594 C 80.679688 41.976562 82.472656 40.179688 84.679688 40.179688 C 86.886719 40.179688 88.679688 41.976562 88.679688 44.183594 C 88.679688 46.390625 86.886719 48.1875 84.679688 48.1875 Z M 84.679688 100.222656 C 86.886719 100.222656 88.679688 102.019531 88.679688 104.226562 C 88.679688 106.433594 86.886719 108.230469 84.679688 108.230469 C 82.472656 108.230469 80.679688 106.433594 80.679688 104.226562 C 80.679688 102.019531 82.472656 100.222656 84.679688 100.222656 Z M 66.027344 73.4375 L 50.027344 82.675781 L 34.027344 73.4375 L 34.027344 54.964844 L 50.027344 45.726562 L 66.027344 54.964844 Z M 66.027344 73.4375 " fill-opacity="1" fill-rule="nonzero"/></g></svg>